<svg height="22" width="22" xmlns="http://www.w3.org/2000/svg" xmlns:xlink="http://www.w3.org/1999/xlink"><linearGradient id="a"><stop offset="0" stop-color="#fff"/><stop offset="1" stop-color="#fff" stop-opacity=".201"/></linearGradient><linearGradient id="b" x1="50%" x2="-13.475%" xlink:href="#a" y1="50%" y2="107.466%"/><linearGradient id="c" x1="50%" x2="115.854%" xlink:href="#a" y1="50%" y2="-8.176%"/><g fill="none"><path d="M8.19 20.774a1.25 1.25 0 01-1.243-1.122l-.007-.128v-3.94H3a1.25 1.25 0 01-1.244-1.123l-.006-.128c0-.647.492-1.18 1.122-1.243L3 13.083h5.19c.648 0 1.18.492 1.244 1.123l.006.127v5.19c0 .691-.56 1.25-1.25 1.25z" fill="#fff"/><path d="M7.329 12.428a1.25 1.25 0 011.817 1.712l-.094.099-6.076 5.78a1.25 1.25 0 01-1.817-1.711l.094-.1z" fill="url(#b)" transform="translate(0 1)"/><path d="M14.308 1.75c.647 0 1.18.492 1.243 1.122l.007.128-.001 3.94h3.941c.647 0 1.18.492 1.244 1.123l.006.127a1.25 1.25 0 01-1.122 1.244l-.128.006h-5.19a1.25 1.25 0 01-1.244-1.122l-.006-.128V3c0-.69.56-1.25 1.25-1.25z" fill="#fff"/><path d="M19.31.383a1.25 1.25 0 011.817 1.712l-.093.099-5.865 5.58a1.25 1.25 0 01-1.817-1.713l.094-.099z" fill="url(#c)" transform="translate(0 1)"/></g></svg>